<svg id="Layer_1" height="512" viewBox="0 0 512 512" width="512" xmlns="http://www.w3.org/2000/svg" data-name="Layer 1"><path d="m376.834 151h-70.414l31.872-127.516a6.024 6.024 0 0 0 -5.821-7.484h-151.3a6 6 0 0 0 -5.894 4.873l-46 240.614a6.428 6.428 0 0 0 1.27 5.143 6.193 6.193 0 0 0 4.624 2.37h72.2l-11.34 220.885a5.893 5.893 0 0 0 4.407 6 5.952 5.952 0 0 0 1.586.165 6.024 6.024 0 0 0 5.312-3.237l174.81-333.07a5.964 5.964 0 0 0 -5.312-8.743zm-167.419 312.036 10.255-200.1a5.586 5.586 0 0 0 -1.643-4.254 5.829 5.829 0 0 0 -4.349-1.682h-71.256l43.709-229h138.655l-31.872 127.486a6.048 6.048 0 0 0 5.821 7.514h68.173z"/><path d="m200.281 51.456h12.69v12.001h-12.69z" transform="matrix(.188 -.982 .982 .188 111.384 249.614)"/><path d="m142.279 122.952h101.355v12.001h-101.355z" transform="matrix(.188 -.982 .982 .188 30.058 294.256)"/></svg>