<svg width="22" height="22" viewBox="0 0 22 22" fill="none" xmlns="http://www.w3.org/2000/svg">
<path d="M18.7141 19.0638C15.4955 21.6913 5.44545 21.6913 2.29248 19.0638C-0.926169 16.4364 -0.597741 5.20397 2.29248 2.24808C5.1827 -0.707815 15.8239 -0.707815 18.7141 2.24808C21.6044 5.20397 21.9328 16.4364 18.7141 19.0638Z" fill="#2172F4" fill-opacity="0.62"/>
<path d="M10.5699 14.4658C7.67969 16.7649 4.46104 17.9472 1.43947 18.0129C-0.793891 14.2031 -0.334065 4.94127 2.2934 2.24813C4.65812 -0.182265 12.0807 -0.642091 16.3503 0.868694C17.4013 5.20402 15.2337 10.7217 10.5699 14.4658Z" fill="#2172F4" fill-opacity="0.62"/>
<path d="M13.8533 9.21085L11.1601 14.7285H9.84643L7.15329 9.21085V15.5167H4.85425V5.46671H7.87582L10.4376 10.9844L13.0651 5.46671H16.0867V15.5167H13.8533V9.21085Z" fill="white"/>
</svg>
