<svg width="22" height="22" viewBox="0 0 22 22" fill="none" xmlns="http://www.w3.org/2000/svg">
<path d="M18.7141 19.0638C15.4955 21.6913 5.44545 21.6913 2.29248 19.0638C-0.926169 16.4364 -0.597741 5.20397 2.29248 2.24808C5.1827 -0.707815 15.8239 -0.707815 18.7141 2.24808C21.6044 5.20397 21.9328 16.4364 18.7141 19.0638Z" fill="#F4212E" fill-opacity="0.62"/>
<path d="M10.5699 14.4658C7.67969 16.7649 4.46104 17.9472 1.43947 18.0129C-0.793891 14.2031 -0.334065 4.94127 2.2934 2.24813C4.65812 -0.182265 12.0807 -0.642091 16.3503 0.868694C17.4013 5.20402 15.2337 10.7217 10.5699 14.4658Z" fill="#F4212E" fill-opacity="0.62"/>
<path d="M9.32617 9.9082H10.2578C10.9961 9.9082 11.3652 9.54688 11.3652 8.82422C11.3652 8.54297 11.2773 8.31445 11.1016 8.13867C10.9258 7.95898 10.6777 7.86914 10.3574 7.86914C10.0957 7.86914 9.86719 7.94531 9.67188 8.09766C9.48047 8.25 9.38477 8.43945 9.38477 8.66602H7.41016C7.41016 8.2168 7.53516 7.81641 7.78516 7.46484C8.03516 7.11328 8.38086 6.83984 8.82227 6.64453C9.26758 6.44531 9.75586 6.3457 10.2871 6.3457C11.2363 6.3457 11.9824 6.5625 12.5254 6.99609C13.0684 7.42969 13.3398 8.02539 13.3398 8.7832C13.3398 9.15039 13.2266 9.49805 13 9.82617C12.7773 10.1504 12.4512 10.4141 12.0215 10.6172C12.4746 10.7812 12.8301 11.0312 13.0879 11.3672C13.3457 11.6992 13.4746 12.1113 13.4746 12.6035C13.4746 13.3652 13.1816 13.9746 12.5957 14.4316C12.0098 14.8887 11.2402 15.1172 10.2871 15.1172C9.72852 15.1172 9.20898 15.0117 8.72852 14.8008C8.25195 14.5859 7.89062 14.291 7.64453 13.916C7.39844 13.5371 7.27539 13.1074 7.27539 12.627H9.26172C9.26172 12.8887 9.36719 13.1152 9.57812 13.3066C9.78906 13.498 10.0488 13.5938 10.3574 13.5938C10.7051 13.5938 10.9824 13.498 11.1895 13.3066C11.3965 13.1113 11.5 12.8633 11.5 12.5625C11.5 12.1328 11.3926 11.8281 11.1777 11.6484C10.9629 11.4688 10.666 11.3789 10.2871 11.3789H9.32617V9.9082Z" fill="white"/>
</svg>
