<svg width="22" height="22" viewBox="0 0 22 22" fill="none" xmlns="http://www.w3.org/2000/svg">
<path d="M18.7141 19.0327C15.4955 21.6602 5.44545 21.6602 2.29248 19.0327C-0.926169 16.4052 -0.597741 5.17282 2.29248 2.21692C5.1827 -0.738974 15.8239 -0.738974 18.7141 2.21692C21.6044 5.17282 21.9328 16.4053 18.7141 19.0327Z" fill="#A195A0"/>
<path d="M10.5699 14.4658C7.67969 16.7649 4.46104 17.9472 1.43947 18.0129C-0.793891 14.2031 -0.334065 4.94127 2.2934 2.24813C4.65812 -0.182265 12.0807 -0.642091 16.3503 0.868694C17.4013 5.20402 15.2337 10.7217 10.5699 14.4658Z" fill="#7D8087"/>
<path d="M13.4746 15H7.52148V13.7109L10.2637 10.8281C10.9395 10.0586 11.2773 9.44727 11.2773 8.99414C11.2773 8.62695 11.1973 8.34766 11.0371 8.15625C10.877 7.96484 10.6445 7.86914 10.3398 7.86914C10.0391 7.86914 9.79492 7.99805 9.60742 8.25586C9.41992 8.50977 9.32617 8.82812 9.32617 9.21094H7.3457C7.3457 8.6875 7.47656 8.20508 7.73828 7.76367C8 7.31836 8.36328 6.9707 8.82812 6.7207C9.29297 6.4707 9.8125 6.3457 10.3867 6.3457C11.3086 6.3457 12.0176 6.55859 12.5137 6.98438C13.0137 7.41016 13.2637 8.02148 13.2637 8.81836C13.2637 9.1543 13.2012 9.48242 13.0762 9.80273C12.9512 10.1191 12.7559 10.4531 12.4902 10.8047C12.2285 11.1523 11.8047 11.6191 11.2188 12.2051L10.1172 13.4766H13.4746V15Z" fill="white"/>
</svg>
