<svg width="22" height="22" viewBox="0 0 22 22" fill="none" xmlns="http://www.w3.org/2000/svg">
<path d="M18.7141 19.0638C15.4955 21.6913 5.44545 21.6913 2.29248 19.0638C-0.926169 16.4363 -0.597741 5.20394 2.29248 2.24805C5.1827 -0.707846 15.8239 -0.707846 18.7141 2.24805C21.6044 5.20394 21.9328 16.4364 18.7141 19.0638Z" fill="#F4212E" fill-opacity="0.62"/>
<path d="M10.5699 14.4658C7.67969 16.7649 4.46104 17.9472 1.43947 18.0129C-0.793891 14.2031 -0.334065 4.94127 2.2934 2.24813C4.65812 -0.182265 12.0807 -0.642091 16.3503 0.868694C17.4013 5.20402 15.2337 10.7217 10.5699 14.4658Z" fill="#F4212E" fill-opacity="0.62"/>
<path d="M5.70117 12.1055V15H3.64453V6.46875H7.04883C7.70117 6.46875 8.27734 6.58984 8.77734 6.83203C9.28125 7.07031 9.66992 7.41211 9.94336 7.85742C10.2207 8.29883 10.3594 8.80078 10.3594 9.36328C10.3594 10.1953 10.0605 10.8613 9.46289 11.3613C8.86914 11.8574 8.05273 12.1055 7.01367 12.1055H5.70117ZM5.70117 10.5176H7.04883C7.44727 10.5176 7.75 10.418 7.95703 10.2188C8.16797 10.0195 8.27344 9.73828 8.27344 9.375C8.27344 8.97656 8.16602 8.6582 7.95117 8.41992C7.73633 8.18164 7.44336 8.06055 7.07227 8.05664H5.70117V10.5176ZM18.3633 12.1113C18.3359 12.7051 18.1758 13.2305 17.8828 13.6875C17.5898 14.1406 17.1777 14.4922 16.6465 14.7422C16.1191 14.9922 15.5156 15.1172 14.8359 15.1172C13.7148 15.1172 12.832 14.752 12.1875 14.0215C11.543 13.291 11.2207 12.2598 11.2207 10.9277V10.5059C11.2207 9.66992 11.3652 8.93945 11.6543 8.31445C11.9473 7.68555 12.3672 7.20117 12.9141 6.86133C13.4609 6.51758 14.0938 6.3457 14.8125 6.3457C15.8477 6.3457 16.6797 6.61914 17.3086 7.16602C17.9375 7.70898 18.2949 8.45898 18.3809 9.41602H16.3301C16.3145 8.89648 16.1836 8.52344 15.9375 8.29688C15.6914 8.07031 15.3164 7.95703 14.8125 7.95703C14.3008 7.95703 13.9258 8.14844 13.6875 8.53125C13.4492 8.91406 13.3242 9.52539 13.3125 10.3652V10.9688C13.3125 11.8789 13.4258 12.5293 13.6523 12.9199C13.8828 13.3105 14.2773 13.5059 14.8359 13.5059C15.3086 13.5059 15.6699 13.3945 15.9199 13.1719C16.1699 12.9492 16.3027 12.5957 16.3184 12.1113H18.3633Z" fill="white"/>
</svg>
